<?xml version="1.0" encoding="UTF-8"?>
<svg width="137px" height="136px" viewBox="0 0 137 136" version="1.1" xmlns="http://www.w3.org/2000/svg" xmlns:xlink="http://www.w3.org/1999/xlink">
    <!-- Generator: Sketch 46.2 (44496) - http://www.bohemiancoding.com/sketch -->
    <title>item3</title>
    <desc>Created with Sketch.</desc>
    <defs>
        <polygon id="path-1" points="59.5 9.4379585e-15 59.5 54.7777778 1.08733372e-15 54.7777778 0 0"></polygon>
    </defs>
    <g id="Home" stroke="none" stroke-width="1" fill="none" fill-rule="evenodd">
        <g id="Multiflora---Home" transform="translate(-970.000000, -1271.000000)">
            <g id="BENEFICIOS" transform="translate(0.000000, 1188.000000)">
                <g id="item3" transform="translate(1038.500000, 151.000000) rotate(-270.000000) translate(-1038.500000, -151.000000) translate(971.000000, 83.000000)">
                    <circle id="Oval-2" stroke="#BCC3CE" cx="71" cy="72" r="64"></circle>
                    <circle id="Oval-2" stroke="#32D7E5" cx="16.5" cy="17.5" r="9.5"></circle>
                    <circle id="Oval-2-Copy-5" stroke="#32D7E5" cx="125.5" cy="105.5" r="6.5"></circle>
                    <circle id="Oval-2-Copy-7" stroke="#32D7E5" cx="125.5" cy="36.5" r="9.5"></circle>
                    <circle id="Oval-2-Copy-3" stroke="#32D7E5" cx="107.5" cy="4.5" r="4.5"></circle>
                    <circle id="Oval-2-Copy-6" stroke="#32D7E5" cx="13.5" cy="41.5" r="4.5"></circle>
                    <circle id="Oval-2-Copy-8" stroke="#32D7E5" cx="41.5" cy="129.5" r="6.5"></circle>
                    <circle id="Oval-2-Copy-4" stroke="#32D7E5" cx="4.5" cy="107.5" r="4.5"></circle>
                    <circle id="Oval-2-Copy-9" stroke="#32D7E5" cx="108.5" cy="123.5" r="4.5"></circle>
                    <g id="Page-1" transform="translate(71.000000, 72.500000) rotate(-270.000000) translate(-71.000000, -72.500000) translate(41.000000, 45.000000)">
                        <mask id="mask-2" fill="white">
                            <use xlink:href="#path-1"></use>
                        </mask>
                        <g id="Clip-2"></g>
                        <path d="M59.5,23.9925073 C59.5,19.6982164 55.9606715,16.2048712 51.611508,16.2048712 L48.6075853,16.2048712 C50.2218743,14.776983 51.2442573,12.711526 51.2442573,10.4083091 C51.2442573,6.11401821 47.706274,2.62067303 43.3571106,2.62067303 L25.3631698,2.62067303 C23.9008931,2.62067303 22.710355,1.44515573 22.710355,0 L20.6924938,0 C20.6924938,2.54363347 22.7870337,4.61307522 25.3631698,4.61307522 L43.3571106,4.61307522 C46.5937599,4.61307522 49.2263961,7.21249596 49.2263961,10.4083091 C49.2263961,13.6041222 46.5937599,16.2048712 43.3571106,16.2048712 L12.3345128,16.2048712 C11.7775831,16.2048712 11.3255822,16.6511693 11.3255822,17.2010723 C11.3255822,17.7509753 11.7775831,18.1972734 12.3345128,18.1972734 L51.611508,18.1972734 C54.8481574,18.1972734 57.4821388,20.7966941 57.4821388,23.9925073 C57.4821388,27.1883204 54.8481574,29.7890694 51.611508,29.7890694 L8.89473208,29.7890694 C8.3378024,29.7890694 7.88580149,30.2353675 7.88580149,30.7852705 C7.88580149,31.3351735 8.3378024,31.7814716 8.89473208,31.7814716 L48.1717273,31.7814716 C51.4083767,31.7814716 54.0423581,34.3808923 54.0423581,37.5780337 C54.0423581,40.7725186 51.4083767,43.3732676 48.1717273,43.3732676 L16.4617115,43.3732676 C15.9047818,43.3732676 15.4527809,43.8195657 15.4527809,44.3694687 C15.4527809,44.9193717 15.9047818,45.3656698 16.4617115,45.3656698 L33.1669116,45.3656698 C38.4227674,45.3656698 42.6992878,49.5882342 42.6992878,54.7777778 L44.717149,54.7777778 C44.717149,50.8726695 42.7167759,47.4218289 39.6765318,45.3656698 L48.1717273,45.3656698 C52.522236,45.3656698 56.0602193,41.8709963 56.0602193,37.5780337 C56.0602193,35.1844946 54.9611576,33.0433263 53.2352137,31.6127815 C56.8081732,30.8716079 59.5,27.7368951 59.5,23.9925073 M35.4497852,50.1660308 L16.0810084,50.1660308 C12.844359,50.1660308 10.2103776,47.5652818 10.2103776,44.3694687 C10.2103776,41.1736556 12.844359,38.5742348 16.0810084,38.5742348 L47.164142,38.5742348 C47.7210717,38.5742348 48.1730726,38.1279367 48.1730726,37.5780337 C48.1730726,37.0268025 47.7210717,36.5818326 47.164142,36.5818326 L7.88714673,36.5818326 C4.6504974,36.5818326 2.01786118,33.9810836 2.01786118,30.7852705 C2.01786118,27.5894574 4.6504974,24.9887084 7.88714673,24.9887084 L50.6039227,24.9887084 C51.1608524,24.9887084 51.6128533,24.5424103 51.6128533,23.9925073 C51.6128533,23.4426043 51.1608524,22.9963062 50.6039227,22.9963062 L11.3255822,22.9963062 C8.09027809,22.9963062 5.45629663,20.3955572 5.45629663,17.2010723 C5.45629663,14.0039309 8.09027809,11.4045102 11.3255822,11.4045102 L42.3495252,11.4045102 C42.9064549,11.4045102 43.3584558,10.9582121 43.3584558,10.4083091 C43.3584558,9.85840608 42.9064549,9.41210799 42.3495252,9.41210799 L27.6473887,9.41210799 C22.3915329,9.41210799 18.1150124,5.18954359 18.1150124,0 L16.0971513,0 C16.0971513,3.90510831 18.0975243,7.35594892 21.1364232,9.41210799 L11.3255822,9.41210799 C6.97776396,9.41210799 3.43843545,12.9054532 3.43843545,17.2010723 C3.43843545,19.5932832 4.53884241,21.7344514 6.2634411,23.163668 C2.69048157,23.9061698 0,27.0395544 0,30.7852705 C0,35.0795614 3.53798327,38.5742348 7.88714673,38.5742348 L10.8305336,38.5742348 C9.21624463,40.0007948 8.19251639,42.0662518 8.19251639,44.3694687 C8.19251639,48.6637596 11.7318449,52.158433 16.0810084,52.158433 L35.4497852,52.158433 C36.9134072,52.158433 38.1039453,53.332622 38.1039453,54.7777778 L40.1218065,54.7777778 C40.1218065,52.2341443 38.0259213,50.1660308 35.4497852,50.1660308" id="Fill-1" fill="#003E73" mask="url(#mask-2)"></path>
                    </g>
                </g>
            </g>
        </g>
    </g>
</svg>