<?xml version="1.0" encoding="UTF-8"?>
<svg width="135px" height="143px" viewBox="0 0 135 143" version="1.1" xmlns="http://www.w3.org/2000/svg" xmlns:xlink="http://www.w3.org/1999/xlink">
    <!-- Generator: Sketch 46.2 (44496) - http://www.bohemiancoding.com/sketch -->
    <title>item1</title>
    <desc>Created with Sketch.</desc>
    <defs>
        <polygon id="path-1" points="0 0.365136367 0 53.0691844 62.6122125 53.0691844 62.6122125 0.365136367 0 0.365136367"></polygon>
    </defs>
    <g id="Home" stroke="none" stroke-width="1" fill="none" fill-rule="evenodd">
        <g id="Multiflora---Home" transform="translate(-168.000000, -1265.000000)">
            <g id="BENEFICIOS" transform="translate(0.000000, 1188.000000)">
                <g id="item1" transform="translate(169.000000, 78.000000)">
                    <circle id="Oval-2" stroke="#BCC3CE" cx="69" cy="77" r="64"></circle>
                    <circle id="Oval-2" stroke="#32D7E5" cx="14.5" cy="22.5" r="9.5"></circle>
                    <circle id="Oval-2-Copy-5" stroke="#32D7E5" cx="114.5" cy="123.5" r="6.5"></circle>
                    <circle id="Oval-2-Copy-7" stroke="#32D7E5" cx="123.5" cy="41.5" r="9.5"></circle>
                    <circle id="Oval-2-Copy-3" stroke="#32D7E5" cx="105.5" cy="9.5" r="4.5"></circle>
                    <circle id="Oval-2-Copy-6" stroke="#32D7E5" cx="28.5" cy="4.5" r="4.5"></circle>
                    <circle id="Oval-2-Copy-8" stroke="#32D7E5" cx="6.5" cy="118.5" r="6.5"></circle>
                    <circle id="Oval-2-Copy-4" stroke="#32D7E5" cx="9.5" cy="100.5" r="4.5"></circle>
                    <g id="Balanza" transform="translate(38.000000, 49.000000)">
                        <polygon id="Fill-1" fill="#003E73" points="17 58 45 58 45 56 17 56"></polygon>
                        <g id="Group-4">
                            <mask id="mask-2" fill="white">
                                <use xlink:href="#path-1"></use>
                            </mask>
                            <g id="Clip-3"></g>
                            <path d="M9.0813375,13.4403447 L15.2350875,28.9135043 L2.780775,28.9135043 L9.0813375,13.4403447 Z M47.3769,28.9140514 L53.53065,13.4408918 L59.831775,28.9140514 L47.3769,28.9140514 Z M53.6110875,36.5745839 C50.2732125,36.5745839 47.5000875,34.2028936 46.9623375,31.1024624 L60.2609625,31.1024624 C59.72265,34.2028936 56.949525,36.5745839 53.6110875,36.5745839 L53.6110875,36.5745839 Z M9.0009,36.5740368 C5.6624625,36.5740368 2.8899,34.2023465 2.3515875,31.1019153 L15.6502125,31.1019153 C15.1119,34.2023465 12.3393375,36.5740368 9.0009,36.5740368 L9.0009,36.5740368 Z M9.0009,38.7624478 C13.9638375,38.7624478 18.0014625,34.8353443 18.0014625,30.0077098 L17.9935875,30.0077098 C17.9935875,29.8747638 17.9767125,29.7407236 17.9260875,29.6132487 L10.604025,11.2032416 L30.181275,6.508553 L30.181275,50.8807734 L23.431275,50.8807734 L23.431275,53.0691844 L39.181275,53.0691844 L39.181275,50.8807734 L32.431275,50.8807734 L32.431275,6.51128852 L52.0079625,11.2037887 L44.6864625,29.6137958 C44.6358375,29.7412707 44.6189625,29.8753109 44.6189625,30.0082569 L44.610525,30.0082569 C44.610525,34.8358914 48.64815,38.7629949 53.6110875,38.7629949 C58.5745875,38.7629949 62.6122125,34.8358914 62.6122125,30.0082569 L62.603775,30.0082569 C62.6043375,29.8720283 62.5863375,29.7357997 62.5329,29.6055893 L54.99765,11.0998392 L57.102525,10.3929824 L56.3684625,8.32383989 L53.779275,9.19373324 C53.574525,9.26266818 53.3545875,9.27306314 53.142525,9.22218258 L32.638275,4.30701159 C33.191775,3.90817369 33.556275,3.27353452 33.556275,2.55354732 C33.556275,1.34663868 32.5465875,0.365136367 31.306275,0.365136367 C30.0654,0.365136367 29.056275,1.34663868 29.056275,2.55354732 C29.056275,3.27244031 29.4190875,3.90598528 29.9714625,4.30537028 L9.4689,9.22163548 C9.258525,9.27196893 9.0385875,9.26266818 8.8327125,9.19318614 L6.243525,8.32383989 L5.5094625,10.3929824 L7.6143375,11.0992921 L0.0790875,29.6050422 C0.0262125,29.7352526 0.0082125,29.8720283 0.0082125,30.0077098 L-0.000225,30.0077098 C-0.000225,34.8353443 4.0379625,38.7624478 9.0009,38.7624478 L9.0009,38.7624478 Z" id="Fill-2" fill="#003E73" mask="url(#mask-2)"></path>
                        </g>
                    </g>
                </g>
            </g>
        </g>
    </g>
</svg>