<?xml version="1.0" encoding="UTF-8"?>
<svg width="259px" height="37px" viewBox="0 0 259 37" version="1.1" xmlns="http://www.w3.org/2000/svg" xmlns:xlink="http://www.w3.org/1999/xlink">
    <!-- Generator: Sketch 46.2 (44496) - http://www.bohemiancoding.com/sketch -->
    <title>multiLogo</title>
    <desc>Created with Sketch.</desc>
    <defs>
        <polygon id="path-1" points="5.92283257e-20 37 259 37 259 0 0 7.86545336e-15"></polygon>
    </defs>
    <g id="Home" stroke="none" stroke-width="1" fill="none" fill-rule="evenodd">
        <g id="Multiflora---Home" transform="translate(-140.000000, -30.000000)">
            <g id="HEADER">
                <g id="Logo-Multiflora" transform="translate(140.000000, 30.000000)">
                    <g id="Page-1">
                        <mask id="mask-2" fill="white">
                            <use xlink:href="#path-1"></use>
                        </mask>
                        <g id="Clip-2"></g>
                        <path d="M256.472342,16.2434705 C255.372671,16.2434705 254.504625,15.3828123 254.504625,14.2149738 C254.504625,13.0449215 255.372671,12.1798355 256.472342,12.1798355 C257.554531,12.1798355 258.444429,13.0449215 258.444429,14.2149738 C258.444429,15.3828123 257.554531,16.2434705 256.472342,16.2434705 L256.472342,16.2434705 Z M256.472342,11.6468362 C255.133399,11.6468362 253.937582,12.6763052 253.937582,14.2149738 C253.937582,15.7525355 255.133399,16.7759162 256.472342,16.7759162 C257.816748,16.7759162 259,15.7525355 259,14.2149738 C259,12.6763052 257.816748,11.6468362 256.472342,11.6468362 L256.472342,11.6468362 Z M255.939715,14.00908 L255.939715,13.1539566 L256.50785,13.1539566 C256.800113,13.1539566 257.153559,13.2137322 257.153559,13.5552281 C257.153559,13.973104 256.842177,14.00908 256.46087,14.00908 L255.939715,14.00908 Z M257.673075,13.5856694 C257.673075,13.0028571 257.296685,12.742169 256.590339,12.742169 L255.450244,12.742169 L255.450244,15.6855647 L255.939715,15.6855647 L255.939715,14.4086911 L256.387668,14.4086911 L257.153559,15.6855647 L257.721148,15.6855647 L256.883148,14.3848915 C257.339842,14.347255 257.673075,14.1175617 257.673075,13.5856694 L257.673075,13.5856694 Z M246.501012,25.3409873 C246.501012,28.6170232 242.943062,30.1800449 239.746206,30.1800449 C237.390627,30.1800449 235.757783,29.1987285 235.757783,27.4486313 C235.757783,25.7101571 236.876573,25.0869409 239.100497,24.909828 L242.763881,24.583276 C244.025798,24.4736874 245.310659,24.3286761 246.501012,23.7414361 L246.501012,25.3409873 Z M252.598639,19.629095 C252.598639,16.0016006 250.661515,13.020015 241.611221,13.020015 C236.445009,13.020015 230.98872,13.7129693 230.235394,19.7071354 L236.337937,19.7071354 C237.234936,17.018893 238.633424,16.8124458 241.330977,16.8124458 C244.987805,16.8124458 246.291785,17.5568736 246.291785,19.1326253 C246.291785,20.6895587 245.627504,21.022199 243.691472,21.1550337 L236.990201,21.6337921 C233.158562,21.8878384 229.026466,22.9123261 229.026466,27.6362603 C229.026466,32.1725654 232.53689,33.951997 237.55779,33.951997 C240.397377,33.951997 244.414206,33.3415108 246.567113,31.1663426 C246.603168,31.8504413 246.781803,32.5362004 247.003048,33.2319222 L253.315911,33.2319222 C252.879429,32.2511593 252.598639,31.0091548 252.598639,29.300015 L252.598639,19.629095 Z M216.994006,17.5568736 L216.94047,17.5568736 L216.94047,13.7423037 L210.842297,13.7423037 L210.842297,33.2319222 L217.15516,33.2319222 L217.15516,24.8367689 C217.15516,21.0526402 219.193347,18.8354076 223.48605,18.8354076 C224.68132,18.8354076 225.82961,19.0960957 226.976807,19.4110247 L226.976807,13.419626 C226.264452,13.2746148 225.399138,13.2386387 224.68132,13.2386387 C221.082945,13.2386387 219.306974,14.5775019 216.994006,17.5568736 L216.994006,17.5568736 Z M194.002533,29.4461331 C190.093322,29.4461331 187.845361,27.3097083 187.845361,23.4934779 C187.845361,19.677801 190.093322,17.5264323 194.002533,17.5264323 C197.923216,17.5264323 200.183195,19.677801 200.183195,23.4934779 C200.183195,27.3097083 197.923216,29.4461331 194.002533,29.4461331 L194.002533,29.4461331 Z M194.002533,13.020015 C186.410272,13.020015 181.305244,16.1471653 181.305244,23.4934779 C181.305244,30.8276141 186.410272,33.951997 194.002533,33.951997 C201.612275,33.951997 206.704739,30.8276141 206.704739,23.4934779 C206.704739,16.1471653 201.612275,13.020015 194.002533,13.020015 L194.002533,13.020015 Z M157.633101,12.7670755 L157.633101,13.7423037 L153.650688,13.7423037 L153.650688,18.035632 L157.633101,18.035632 L157.633101,33.2319222 L163.946511,33.2319222 L163.946511,18.035632 L169.003465,18.035632 L169.003465,13.7423037 L163.946511,13.7423037 L163.946511,12.5490052 C163.946511,10.737472 164.776317,10.5437547 165.882543,10.5437547 C166.959269,10.5437547 167.997756,10.5919073 169.080492,10.6162603 L169.080492,6.6323261 C167.526312,6.58195961 165.960115,6.5520718 165.098624,6.5520718 C159.209678,6.5520718 157.633101,7.53394166 157.633101,12.7670755 L157.633101,12.7670755 Z M170.86848,33.2324757 L177.185714,33.2324757 L177.185714,6.84430815 L170.86848,6.84430815 L170.86848,33.2324757 Z M144.255142,33.2319222 L150.561996,33.2319222 L150.561996,13.7423037 L144.255142,13.7423037 L144.255142,33.2319222 Z M144.255142,11.351279 L150.561996,11.351279 L150.561996,6.84430815 L144.255142,6.84430815 L144.255142,11.351279 Z M135.962545,27.1204188 L135.962545,18.0350785 L141.055554,18.0350785 L141.055554,13.7423037 L135.962545,13.7423037 L135.962545,7.7160359 L129.655145,7.7160359 L129.655145,13.7423037 L125.662898,13.7423037 L125.662898,18.0350785 L129.655145,18.0350785 L129.655145,27.8969484 C129.655145,31.4159611 130.21891,33.6675093 136.207826,33.6675093 C137.606861,33.6675093 139.97992,33.4444577 141.156617,33.3055348 L141.156617,29.0160808 C140.158555,29.0830516 139.196548,29.1616455 138.077758,29.1616455 C136.429072,29.1616455 135.962545,28.646911 135.962545,27.1204188 L135.962545,27.1204188 Z M116.266806,33.2324757 L122.582947,33.2324757 L122.582947,6.84430815 L116.266806,6.84430815 L116.266806,33.2324757 Z M104.931951,23.4929245 C104.931951,27.0899776 102.994826,29.0160808 99.593113,29.0160808 C96.6819633,29.0160808 95.2763735,27.7026776 95.2763735,25.0199701 L95.2763735,13.7423037 L88.9766216,13.7423037 L88.9766216,26.9383246 C88.9766216,32.6933882 93.9505412,33.9525505 97.2189609,33.9525505 C100.909112,33.9525505 103.926787,32.2517128 105.075077,30.6222737 L105.153196,30.6222737 L105.153196,33.2319222 L111.243721,33.2319222 L111.243721,13.7423037 L104.931951,13.7423037 L104.931951,23.4929245 Z M65.8229026,25.9647569 L58.2191697,7.27989529 L47.9976419,7.27989529 L47.9976419,33.2324757 L54.7464397,33.2324757 L54.7464397,12.4455049 L54.8059847,12.4455049 L62.9188546,33.2324757 L68.729682,33.2324757 L76.8409131,12.4455049 L76.9124764,12.4455049 L76.9124764,33.2324757 L83.6678295,33.2324757 L83.6678295,7.27989529 L73.4342835,7.27989529 L65.8229026,25.9647569 Z M2.88875202,16.970187 L3.1455057,17.2424981 L3.20559699,17.3089155 L3.28316938,17.2424981 L6.31286278,14.172356 L5.96706474,13.808721 C4.9094581,12.729439 4.37628451,11.3197307 4.37628451,9.91500374 C4.37628451,8.50197457 4.9094581,7.09780105 5.96706474,6.03733732 C7.01811597,4.96580404 8.42315951,4.42118175 9.81126822,4.42118175 C11.1971918,4.42118175 12.5836617,4.96580404 13.6358055,6.03733732 L23.1897737,15.6977412 L26.2145506,12.6270456 L26.2801047,12.55454 L26.2145506,12.4942109 L16.7572747,2.90631264 C15.8296837,1.9615258 14.7360223,1.22816754 13.51016,0.732251309 C12.3400188,0.241869858 11.0955829,0 9.82874933,0 C7.24700915,0 4.71006429,1.05271503 2.88875202,2.90631264 C1.95569823,3.85109948 1.2203994,4.96580404 0.730382273,6.1884368 C0.245281706,7.38284218 0,8.64145101 0,9.9260733 L0,9.95596111 C0,11.2350486 0.245281706,12.4942109 0.730382273,13.6819746 C1.2203994,14.9228721 1.95569823,16.0259536 2.88875202,16.970187 L2.88875202,16.970187 Z M33.6565833,20.0220643 L33.3757931,19.7491997 L33.3157018,19.677801 L33.2441385,19.7491997 L30.2133525,22.8215557 L30.5482249,23.178549 C31.629868,24.256724 32.1493845,25.661451 32.1493845,27.0783545 C32.1493845,28.4841885 31.6233126,29.889469 30.5482249,30.966537 C29.5009977,32.034196 28.1096112,32.5721765 26.7269654,32.5721765 C25.3344864,32.5721765 23.9425537,32.0220194 22.8833082,30.966537 L13.3484599,21.2884218 L10.3127573,24.3646522 L10.2592214,24.4255348 L10.3127573,24.5041286 L19.7629315,34.0792969 C20.706911,35.0318325 21.7836376,35.7629768 23.0149627,36.2655348 C24.1932982,36.7520419 25.431725,37 26.6920032,37 C29.2797525,37 31.8205213,35.9389828 33.6565833,34.0792969 C34.5781651,33.1295288 35.3058159,32.034196 35.8018422,30.803261 C36.2798411,29.6033209 36.5251228,28.3508003 36.5251228,27.0717128 L36.5251228,27.0296485 C36.5251228,25.7527749 36.2798411,24.5041286 35.8018422,23.2997607 C35.3058159,22.0632909 34.5781651,20.9613164 33.6565833,20.0220643 L33.6565833,20.0220643 Z M13.9881589,30.5979207 L13.6478237,30.9670905 C12.5836617,32.034196 11.1857198,32.5721765 9.79269455,32.5721765 C8.41168753,32.5721765 7.01811597,32.021466 5.96706474,30.9670905 C4.9094581,29.876739 4.37573822,28.4714585 4.37573822,27.0717128 C4.37573822,25.6564697 4.9094581,24.2500823 5.96706474,23.178549 L15.513385,13.5120568 L12.4765899,10.4336126 L12.4110358,10.3743904 L12.3400188,10.4336126 L2.88875202,20.0220643 C1.94914282,20.9613164 1.21985311,22.0632909 0.730382273,23.2997607 C0.244735421,24.5041286 0,25.7527749 0,27.041825 C0,29.6664174 1.05269008,32.2273598 2.88875202,34.0787435 C3.79722302,35.0251907 4.9094581,35.7635303 6.11510782,36.2655348 C7.29945245,36.7520419 8.53678667,37 9.81126822,37 L9.84076758,37 C11.0961292,37 12.3400188,36.7520419 13.51016,36.2655348 C14.7365686,35.7635303 15.8296837,35.0251907 16.7572747,34.0787435 L17.0194912,33.813074 L17.0976098,33.7472102 L17.0194912,33.6680628 L13.9881589,30.5979207 Z M22.5309547,6.38824233 L22.8838544,6.03180254 C23.9425537,4.954181 25.3470509,4.42173523 26.7340671,4.42173523 C28.1156204,4.42173523 29.5015439,4.96635752 30.5482249,6.03180254 C31.6293218,7.09780105 32.1499308,8.52023934 32.1499308,9.92662678 C32.1499308,11.325819 31.6238589,12.7299925 30.5482249,13.808721 L21.0128303,23.4873897 L24.0496254,26.5514435 L24.1277441,26.6178609 L24.1932982,26.5514435 L33.6565833,16.970187 C34.5781651,16.0259536 35.3183805,14.9228721 35.8018422,13.6819746 C36.2803873,12.4881227 36.5245765,11.2228721 36.5245765,9.94489155 C36.5245765,7.32195961 35.4849972,4.76046372 33.6565833,2.90631264 C32.7120575,1.9615258 31.6293218,1.23480927 30.4105612,0.732251309 C29.2262166,0.247958115 27.9959841,0.000553477936 26.7269654,0.000553477936 L26.6914569,0.000553477936 C25.4257159,0.000553477936 24.1932982,0.247958115 23.0144164,0.732251309 C21.7841839,1.23480927 20.7074573,1.9615258 19.7629315,2.90631264 L19.5072704,3.17917726 L19.4291518,3.25168287 L19.5072704,3.31810022 L22.5309547,6.38824233 Z" id="Fill-1" fill="#004179" mask="url(#mask-2)"></path>
                    </g>
                </g>
            </g>
        </g>
    </g>
</svg>