<?xml version="1.0" encoding="UTF-8"?>
<svg width="204px" height="29px" viewBox="0 0 204 29" version="1.1" xmlns="http://www.w3.org/2000/svg" xmlns:xlink="http://www.w3.org/1999/xlink">
    <!-- Generator: Sketch 46.2 (44496) - http://www.bohemiancoding.com/sketch -->
    <title>multi2Logo</title>
    <desc>Created with Sketch.</desc>
    <defs>
        <polygon id="path-1" points="4.6650882e-20 29 204 29 204 0 0 6.1648148e-15"></polygon>
    </defs>
    <g id="Home" stroke="none" stroke-width="1" fill="none" fill-rule="evenodd">
        <g id="Multiflora---Home" transform="translate(-143.000000, -2180.000000)">
            <g id="FOOTER" transform="translate(0.000000, 2108.000000)">
                <g id="Logo-Multiflora-Copy" transform="translate(143.000000, 72.000000)">
                    <g id="Page-1">
                        <mask id="mask-2" fill="white">
                            <use xlink:href="#path-1"></use>
                        </mask>
                        <g id="Clip-2"></g>
                        <path d="M202.009103,12.7313687 C201.142954,12.7313687 200.459242,12.0567988 200.459242,11.141466 C200.459242,10.2243979 201.142954,9.54635752 202.009103,9.54635752 C202.861484,9.54635752 203.562407,10.2243979 203.562407,11.141466 C203.562407,12.0567988 202.861484,12.7313687 202.009103,12.7313687 L202.009103,12.7313687 Z M202.009103,9.12860135 C200.954492,9.12860135 200.012613,9.93548242 200.012613,11.141466 C200.012613,12.3465819 200.954492,13.1486911 202.009103,13.1486911 C203.068018,13.1486911 204,12.3465819 204,11.141466 C204,9.93548242 203.068018,9.12860135 202.009103,9.12860135 L202.009103,9.12860135 Z M201.589582,10.9800898 L201.589582,10.3098579 L202.037071,10.3098579 C202.26727,10.3098579 202.54566,10.3567091 202.54566,10.624368 C202.54566,10.9518923 202.300402,10.9800898 202.000067,10.9800898 L201.589582,10.9800898 Z M202.954855,10.6482274 C202.954855,10.1914286 202.658393,9.98710546 202.102043,9.98710546 L201.204053,9.98710546 L201.204053,12.2940912 L201.589582,12.2940912 L201.589582,11.2932984 L201.94241,11.2932984 L202.54566,12.2940912 L202.992719,12.2940912 L202.332672,11.2746447 C202.692385,11.2451458 202.954855,11.0651159 202.954855,10.6482274 L202.954855,10.6482274 Z M194.155238,19.8618549 C194.155238,22.4295587 191.352836,23.6546298 188.834849,23.6546298 C186.97949,23.6546298 185.693389,22.8854899 185.693389,21.5137921 C185.693389,20.1512042 186.574598,19.6627375 188.32626,19.5239192 L191.211705,19.2679731 C192.205648,19.1820793 193.217662,19.0684218 194.155238,18.6081526 L194.155238,19.8618549 Z M198.958001,15.3849663 C198.958001,12.5417951 197.432235,10.2048766 190.303819,10.2048766 C186.234679,10.2048766 181.937061,10.748003 181.343708,15.4461331 L186.150344,15.4461331 C186.856861,13.3391324 187.958373,13.1773224 190.083086,13.1773224 C192.963367,13.1773224 193.990441,13.7607928 193.990441,14.9958414 C193.990441,16.2161406 193.467223,16.4768586 191.942317,16.5809723 L186.664096,16.9562154 C183.646126,17.1553328 180.391502,17.9583096 180.391502,21.6608527 C180.391502,25.2163351 183.156469,26.6110247 187.111155,26.6110247 C189.347741,26.6110247 192.511575,26.1325355 194.207301,24.4276739 C194.2357,24.9638594 194.376401,25.5013463 194.550663,26.0466417 L199.522957,26.0466417 C199.179164,25.2779357 198.958001,24.3044727 198.958001,22.9648766 L198.958001,15.3849663 Z M170.914197,13.7607928 L170.87203,13.7607928 L170.87203,10.7709948 L166.068836,10.7709948 L166.068836,26.0466417 L171.04113,26.0466417 L171.04113,19.4666567 C171.04113,16.500718 172.646497,14.7628871 176.027622,14.7628871 C176.969071,14.7628871 177.873515,14.9672102 178.777099,15.2140464 L178.777099,10.5180853 C178.216016,10.4044278 177.534456,10.3762304 176.969071,10.3762304 C174.134829,10.3762304 172.735995,11.4256096 170.914197,13.7607928 L170.914197,13.7607928 Z M152.805084,23.0794016 C149.726014,23.0794016 147.95542,21.4049065 147.95542,18.413807 C147.95542,15.4231414 149.726014,13.7369334 152.805084,13.7369334 C155.89319,13.7369334 157.67325,15.4231414 157.67325,18.413807 C157.67325,21.4049065 155.89319,23.0794016 152.805084,23.0794016 L152.805084,23.0794016 Z M152.805084,10.2048766 C146.825079,10.2048766 142.804131,12.6558863 142.804131,18.413807 C142.804131,24.162184 146.825079,26.6110247 152.805084,26.6110247 C158.798858,26.6110247 162.80991,24.162184 162.80991,18.413807 C162.80991,12.6558863 158.798858,10.2048766 152.805084,10.2048766 L152.805084,10.2048766 Z M124.158891,10.0066268 L124.158891,10.7709948 L121.022164,10.7709948 L121.022164,14.1360359 L124.158891,14.1360359 L124.158891,26.0466417 L129.131614,26.0466417 L129.131614,14.1360359 L133.114699,14.1360359 L133.114699,10.7709948 L129.131614,10.7709948 L129.131614,9.83570681 C129.131614,8.41585639 129.785207,8.26402393 130.65652,8.26402393 C131.504598,8.26402393 132.322557,8.30176515 133.175368,8.32085266 L133.175368,5.19830965 C131.951227,5.15883321 130.717619,5.13540763 130.039071,5.13540763 C125.400673,5.13540763 124.158891,5.9049813 124.158891,10.0066268 L124.158891,10.0066268 Z M134.583668,26.0470755 L139.559404,26.0470755 L139.559404,5.36445774 L134.583668,5.36445774 L134.583668,26.0470755 Z M113.621811,26.0466417 L118.589371,26.0466417 L118.589371,10.7709948 L113.621811,10.7709948 L113.621811,26.0466417 Z M113.621811,8.89694839 L118.589371,8.89694839 L118.589371,5.36445774 L113.621811,5.36445774 L113.621811,8.89694839 Z M107.09019,21.2565445 L107.09019,14.1356021 L111.101672,14.1356021 L111.101672,10.7709948 L107.09019,10.7709948 L107.09019,6.04770381 L102.122199,6.04770381 L102.122199,10.7709948 L98.9777268,10.7709948 L98.9777268,14.1356021 L102.122199,14.1356021 L102.122199,21.8651758 C102.122199,24.6233209 102.566246,26.3880479 107.283385,26.3880479 C108.385327,26.3880479 110.254455,26.2132236 111.181274,26.1043381 L111.181274,22.7423336 C110.395156,22.7948242 109.637436,22.8564248 108.756226,22.8564248 C107.457647,22.8564248 107.09019,22.4529843 107.09019,21.2565445 L107.09019,21.2565445 Z M91.5769438,26.0470755 L96.551819,26.0470755 L96.551819,5.36445774 L91.5769438,5.36445774 L91.5769438,26.0470755 Z M82.649104,18.4133732 C82.649104,21.2326851 81.1233379,22.7423336 78.4439964,22.7423336 C76.1510445,22.7423336 75.043939,21.7129095 75.043939,19.6102468 L75.043939,10.7709948 L70.0819722,10.7709948 L70.0819722,21.113822 C70.0819722,25.6245475 73.9996541,26.6114585 76.5740078,26.6114585 C79.4805362,26.6114585 81.8573923,25.2783695 82.7618369,24.0012416 L82.8233666,24.0012416 L82.8233666,26.0466417 L87.6205369,26.0466417 L87.6205369,10.7709948 L82.649104,10.7709948 L82.649104,18.4133732 Z M51.8450661,20.3507554 L45.8560256,5.70586387 L37.8050925,5.70586387 L37.8050925,26.0470755 L43.1207478,26.0470755 L43.1207478,9.75458489 L43.1676482,9.75458489 L49.5577079,26.0470755 L54.1345758,26.0470755 L60.5233447,9.75458489 L60.5797111,9.75458489 L60.5797111,26.0470755 L65.9005298,26.0470755 L65.9005298,5.70586387 L57.8401306,5.70586387 L51.8450661,20.3507554 Z M2.27531048,13.3009574 L2.47754117,13.5143904 L2.52487176,13.5664473 L2.58597125,13.5143904 L4.97229347,11.1080628 L4.69992744,10.8230516 C3.86690908,9.9771279 3.44695768,8.87222139 3.44695768,7.77121915 C3.44695768,6.6637098 3.86690908,5.56314136 4.69992744,4.73196709 C5.52778246,3.89211668 6.63445768,3.46525056 7.72779428,3.46525056 C8.81940976,3.46525056 9.91145552,3.89211668 10.7401711,4.73196709 L18.2653044,12.303635 L20.6477541,9.8968736 L20.6993875,9.84004488 L20.6477541,9.79275991 L13.19878,2.27792072 C12.4681679,1.53741212 11.6067511,0.962617801 10.6412071,0.573926702 C9.7195515,0.189573672 8.73937804,0 7.74156317,0 C5.70806898,0 3.70985759,0.825100972 2.27531048,2.27792072 C1.54039552,3.01842932 0.961241226,3.89211668 0.57528179,4.85039641 C0.193194857,5.78655198 0,6.77302917 0,7.77989529 L0,7.80332087 C0,8.80584892 0.193194857,9.79275991 0.57528179,10.7237098 C0.961241226,11.6963052 1.54039552,12.5608826 2.27531048,13.3009574 L2.27531048,13.3009574 Z M26.5094324,15.6929693 L26.2882694,15.4791025 L26.2409388,15.4231414 L26.1845724,15.4791025 L23.7973896,17.8871653 L24.0611501,18.1669708 C24.9131007,19.0120269 25.3222952,20.1130292 25.3222952,21.2235752 C25.3222952,22.325445 24.9079374,23.4268811 24.0611501,24.2710696 C23.236307,25.1078833 22.1403888,25.5295438 21.051355,25.5295438 C19.9545761,25.5295438 18.8582276,25.0983396 18.0239184,24.2710696 L10.5138448,16.6855198 L8.12278955,19.0966193 L8.0806223,19.1443381 L8.12278955,19.2059387 L15.56617,26.7108003 C16.3096905,27.4573822 17.1577686,28.0304413 18.1276154,28.4243381 C19.0557252,28.8056545 20.0311656,29 21.0238172,29 C23.0620444,29 25.0632678,28.1683919 26.5094324,26.7108003 C27.2353115,25.9663874 27.8084419,25.1078833 28.1991344,24.1430965 C28.5756277,23.2026028 28.7688226,22.2208975 28.7688226,21.2183695 L28.7688226,21.1854001 C28.7688226,20.1846073 28.5756277,19.2059387 28.1991344,18.2619746 C27.8084419,17.2928497 27.2353115,16.4291399 26.5094324,15.6929693 L26.5094324,15.6929693 Z M11.0177005,23.9821541 L10.7496372,24.2715034 C9.91145552,25.1078833 8.81037392,25.5295438 7.71316482,25.5295438 C6.62542184,25.5295438 5.52778246,25.0979058 4.69992744,24.2715034 C3.86690908,23.4169035 3.4465274,22.3154675 3.4465274,21.2183695 C3.4465274,20.1091249 3.86690908,19.0068212 4.69992744,18.1669708 L12.2190369,10.590531 L9.82712102,8.17769634 L9.77548765,8.13127898 L9.7195515,8.17769634 L2.27531048,15.6929693 C1.53523218,16.4291399 0.960810948,17.2928497 0.57528179,18.2619746 C0.192764579,19.2059387 0,20.1846073 0,21.1949439 C0,23.2520568 0.829145856,25.259282 2.27531048,26.7103665 C2.99086292,27.4521765 3.86690908,28.0308751 4.8165328,28.4243381 C5.74937567,28.8056545 6.72395552,29 7.72779428,29 L7.75102929,29 C8.73980832,29 9.7195515,28.8056545 10.6412071,28.4243381 C11.6071814,28.0308751 12.4681679,27.4521765 13.19878,26.7103665 L13.4053135,26.5021391 L13.4668433,26.4505161 L13.4053135,26.3884817 L11.0177005,23.9821541 Z M17.746389,5.00700075 L18.0243487,4.72762902 C18.8582276,3.88300673 19.9644725,3.46568437 21.0569486,3.46568437 C22.1451218,3.46568437 23.2367373,3.89255049 24.0611501,4.72762902 C24.9126704,5.56314136 25.3227254,6.67802543 25.3227254,7.78032909 C25.3227254,8.87699327 24.9083676,9.97756171 24.0611501,10.8230516 L16.5506463,18.4090352 L18.9425621,20.8105909 L19.0040919,20.8626477 L19.0557252,20.8105909 L26.5094324,13.3009574 C27.2353115,12.5608826 27.8183383,11.6963052 28.1991344,10.7237098 C28.576058,9.78798803 28.7683923,8.79630516 28.7683923,7.79464473 C28.7683923,5.73883321 27.9495731,3.73117427 26.5094324,2.27792072 C25.7654816,1.53741212 24.9126704,0.967823485 23.95272,0.573926702 C23.0198772,0.19434555 22.0508909,0.000433807031 21.051355,0.000433807031 L21.0233869,0.000433807031 C20.0264326,0.000433807031 19.0557252,0.19434555 18.1271851,0.573926702 C17.1581989,0.967823485 16.3101208,1.53741212 15.56617,2.27792072 L15.3647999,2.49178758 L15.3032701,2.54861631 L15.3647999,2.60067315 L17.746389,5.00700075 Z" id="Fill-1" fill="#FFFFFF" mask="url(#mask-2)"></path>
                    </g>
                </g>
            </g>
        </g>
    </g>
</svg>